<svg width="49" height="49" viewBox="0 0 49 49" fill="none" xmlns="http://www.w3.org/2000/svg">
<path d="M21.4451 0L18.3903 7.27057C17.7793 7.45387 17.2294 7.75935 16.6796 8.06484L9.40898 5.00997L5.00997 9.40898L8.06484 16.6796C7.75935 17.2905 7.51496 17.7793 7.27057 18.3903L0 21.4451V27.5549L7.27057 30.6097C7.51496 31.2207 7.75935 31.7095 8.06484 32.3204L5.00997 39.591L9.40898 43.99L16.6796 40.9352C17.2294 41.1796 17.7793 41.485 18.3903 41.7294L21.4451 49H27.5549L30.6097 41.7294C31.1596 41.485 31.7706 41.2406 32.3204 40.9352L39.591 43.99L43.99 39.591L40.9352 32.3204C41.1796 31.7706 41.485 31.1596 41.7294 30.6097L49 27.5549V21.4451L41.7294 18.3903C41.5461 17.8404 41.2407 17.2294 40.9352 16.6796L43.99 9.40898L39.591 5.00997L32.3204 8.06484C31.7706 7.82045 31.1596 7.51496 30.6097 7.27057L27.5549 0L21.4451 0ZM24.5 15.2743C29.5711 15.2743 33.6646 19.3678 33.6646 24.4389C33.6646 29.51 29.5711 33.6035 24.5 33.6035C19.4289 33.6035 15.3354 29.51 15.3354 24.4389C15.3354 19.3678 19.4289 15.2743 24.5 15.2743Z" fill="white"/>
</svg>
