<svg width="49" height="49" viewBox="0 0 49 49" fill="none" xmlns="http://www.w3.org/2000/svg">
<path d="M49 0C18.375 0 12.25 6.125 12.25 6.125V31.1763C11.3313 30.87 10.2288 30.625 9.1875 30.625C4.10375 30.625 0 34.7287 0 39.8125C0 44.8963 4.10375 49 9.1875 49C14.2712 49 18.375 44.8963 18.375 39.8125V15.4963C22.8463 14.0875 30.5637 12.8012 42.875 12.4338V25.0513C41.9562 24.745 40.8537 24.5 39.8125 24.5C34.7287 24.5 30.625 28.6038 30.625 33.6875C30.625 38.7713 34.7287 42.875 39.8125 42.875C44.8963 42.875 49 38.7713 49 33.6875V0Z" fill="white"/>
</svg>
