<svg width="49" height="49" viewBox="0 0 49 49" fill="none" xmlns="http://www.w3.org/2000/svg">
<path d="M21.2452 0.0607005C9.52997 0.0607005 0 9.59067 0 21.3059C0 33.021 9.52997 42.551 21.2452 42.551C24.8265 42.551 28.3471 41.7012 31.3214 40.0623C31.5597 40.349 31.8238 40.6132 32.1105 40.8514L38.1806 46.9215C38.7411 47.5521 39.4246 48.0616 40.1891 48.4186C40.9536 48.7755 41.783 48.9725 42.6264 48.9973C43.4698 49.0221 44.3093 48.8743 45.0935 48.563C45.8777 48.2516 46.59 47.7832 47.1866 47.1866C47.7832 46.5899 48.2516 45.8777 48.563 45.0935C48.8743 44.3093 49.0221 43.4698 48.9973 42.6264C48.9725 41.783 48.7755 40.9536 48.4186 40.1891C48.0616 39.4246 47.5521 38.7411 46.9215 38.1806L40.8514 32.1105C40.5557 31.8148 40.2303 31.5503 39.8802 31.3214C41.5191 28.3471 42.551 24.8872 42.551 21.2452C42.551 9.52997 33.0211 0 21.3059 0L21.2452 0.0607005ZM21.2452 6.13075C29.6825 6.13075 36.4203 12.8685 36.4203 21.3059C36.4203 25.3121 34.9635 29.0148 32.414 31.7463C32.3533 31.807 32.2926 31.8677 32.2319 31.9284C31.9452 32.1667 31.6811 32.4308 31.4428 32.7175C28.772 35.1456 25.13 36.5417 21.1845 36.5417C12.7471 36.5417 6.00935 29.8039 6.00935 21.3666C6.00935 12.9292 12.7471 6.19145 21.1845 6.19145L21.2452 6.13075Z" fill="white"/>
</svg>
